<?xml version="1.0" encoding="UTF-8"?>
<svg width="256px" height="256px" viewBox="0 0 256 256" version="1.1" xmlns="http://www.w3.org/2000/svg" xmlns:xlink="http://www.w3.org/1999/xlink">
    <!-- Generator: Sketch 39.1 (31720) - http://www.bohemiancoding.com/sketch -->
    <desc>Created with Sketch.</desc>
    <defs></defs>
    <g id="Page-2" stroke="none" stroke-width="1" fill="none" fill-rule="evenodd">
        <g id="" fill="#93DCDF">
            <g id="Group">
                <path d="M0,0 L256,0 L256,256 L0,256 L0,0 Z M171.966984,200.001016 C177.123556,208.420571 183.832381,214.60927 195.697778,214.60927 C205.665524,214.60927 212.033016,209.627429 212.033016,202.743873 C212.033016,194.494984 205.490794,191.573333 194.519365,186.774349 L188.505397,184.194032 C171.146159,176.798476 159.613968,167.533714 159.613968,147.947683 C159.613968,129.905778 173.360762,116.171175 194.844444,116.171175 C210.139429,116.171175 221.135238,121.494349 229.059048,135.432127 L210.326349,147.460063 C206.201905,140.064508 201.752381,137.150984 194.844444,137.150984 C187.798349,137.150984 183.332571,141.620825 183.332571,147.460063 C183.332571,154.676825 187.802413,157.598476 198.123683,162.068317 L204.137651,164.644571 C224.577016,173.409524 236.117333,182.345143 236.117333,202.435048 C236.117333,224.09346 219.103492,235.958857 196.254476,235.958857 C173.913397,235.958857 159.479873,225.312508 152.417524,211.358476 L171.966984,200.001016 Z M86.9871746,202.085587 C90.7662222,208.790349 94.2039365,214.458921 102.469079,214.458921 C110.372571,214.458921 115.358476,211.366603 115.358476,199.34273 L115.358476,117.544635 L139.414349,117.544635 L139.414349,199.66781 C139.414349,224.577016 124.810159,235.914159 103.493079,235.914159 C84.232127,235.914159 73.0778413,225.946413 67.4052063,213.940825 L86.9871746,202.085587 Z" id="Combined-Shape"></path>
            </g>
        </g>
    </g>
</svg>